# xmcd
#
# Track frame offsets: 
#        150
#        14082
#        28910
#        40195
#        52610
#        64520
#        78572
#        92836
#        104385
#        119095
#
# Disc length: 1716 seconds
#
# Revision: 0
# Processed by: cddbd v1.5.2PL0 Copyright (c) Steve Scherf et al.
# Submitted via: ExactAudioCopy v0.99pb4
#
DISCID=8106b20a
DTITLE=The Statler Brothers - Gospel Favorites [CD2]
DYEAR=1992
DGENRE=Gospel
TTITLE0=Precious Memories
TTITLE1=How Great Thou Art
TTITLE2=Jesus Is the Answer Everytime
TTITLE3=Over the Sunset Mountains
TTITLE4=I Believe I'll Live for Him
TTITLE5=In the Garden
TTITLE6=A Different Song
TTITLE7=Just a Little Talk With Jesus
TTITLE8=A Beautiful Life
TTITLE9=I'll Fly Away, I'll Fly Away
EXTD=
EXTT0=
EXTT1=
EXTT2=
EXTT3=
EXTT4=
EXTT5=
EXTT6=
EXTT7=
EXTT8=
EXTT9=
PLAYORDER=
